<?xml version="1.0" encoding="iso-8859-1"?>
<!-- Generator: Adobe Illustrator 19.0.0, SVG Export Plug-In . SVG Version: 6.00 Build 0)  -->
<svg version="1.1" id="Layer_1" xmlns="http://www.w3.org/2000/svg" xmlns:xlink="http://www.w3.org/1999/xlink" x="0px" y="0px"
	 viewBox="0 0 512 512" style="enable-background:new 0 0 512 512;" xml:space="preserve">
<path style="fill:#DEDEE0;" d="M488.728,0.012h-0.025h-93.086h-139.63H23.272c-7.23,0-13.688,3.297-17.958,8.469
	c-1.897,2.299-3.362,4.968-4.268,7.883C0.366,18.549,0,20.875,0,23.284v93.113v372.319c0,12.851,10.419,23.272,23.272,23.272
	h232.716h232.716c12.852,0,23.272-10.421,23.272-23.272v-371.84c0.003-0.161,0.025-0.318,0.025-0.481V23.284
	C512,10.432,501.581,0.012,488.728,0.012z"/>
<path style="fill:#5286F9;" d="M488.728,0.012h-0.025h-93.086h-139.63H23.272C10.419,0.012,0,10.432,0,23.284v93.113
	c0,12.854,10.419,23.272,23.272,23.272h23.272h209.444h139.63h69.815h23.272h0.025c12.691,0,22.988-10.162,23.247-22.791
	c0.003-0.161,0.025-0.318,0.025-0.481V23.284C512,10.432,501.581,0.012,488.728,0.012z M465.457,93.124h-0.025h-46.543V46.556
	h46.543h0.025V93.124z"/>
<path style="fill:#806749;" d="M232.716,271.474H193.93c-2.724,0-5.329,0.49-7.757,1.351c-9.032,3.201-15.514,11.792-15.514,21.92
	v100.844c0,12.851,10.419,23.272,23.272,23.272h62.058V271.474H232.716z"/>
<path style="fill:#898890;" d="M232.716,271.474V255.96c0-12.832,10.44-23.272,23.272-23.272v-46.543
	c-38.497,0-69.815,31.319-69.815,69.815v16.866c2.428-0.861,5.033-1.351,7.757-1.351H232.716z"/>
<path style="fill:#A78966;" d="M341.317,395.589V294.746c0-10.128-6.482-18.72-15.514-21.92c-2.428-0.861-5.033-1.351-7.757-1.351
	h-38.786h-23.272v147.387h62.058C330.897,418.861,341.317,408.441,341.317,395.589z"/>
<path style="fill:#ACABB1;" d="M279.259,255.96v15.514h38.786c2.724,0,5.329,0.49,7.757,1.351V255.96
	c0-38.496-31.319-69.815-69.815-69.815v46.543C268.821,232.688,279.259,243.128,279.259,255.96z"/>
<path style="fill:#D6D5D8;" d="M232.716,255.96v15.514h23.272v-38.786C243.156,232.688,232.716,243.128,232.716,255.96z"/>
<path style="fill:#C3C3C7;" d="M23.272,511.988h232.716v-93.125H193.93c-12.852,0-23.272-10.421-23.272-23.272V294.747
	c0-10.128,6.482-18.72,15.514-21.92v-16.866c0-38.496,31.317-69.815,69.815-69.815v-46.48H46.543H23.272
	C10.419,139.667,0,129.249,0,116.395v372.319C0,501.567,10.419,511.988,23.272,511.988z"/>
<polygon style="fill:#FFFFFF;" points="465.457,93.124 465.457,46.556 465.432,46.556 418.889,46.556 418.889,93.124 
	465.432,93.124 "/>
<path style="fill:#3D6DEB;" d="M23.272,139.667h23.272h209.444V0.012H23.272C10.419,0.012,0,10.432,0,23.284v93.113
	C0,129.25,10.419,139.667,23.272,139.667z"/>
<g>
</g>
<g>
</g>
<g>
</g>
<g>
</g>
<g>
</g>
<g>
</g>
<g>
</g>
<g>
</g>
<g>
</g>
<g>
</g>
<g>
</g>
<g>
</g>
<g>
</g>
<g>
</g>
<g>
</g>
</svg>
